<svg width="1000" height="1081" viewBox="0 0 1000 1081" fill="none" xmlns="http://www.w3.org/2000/svg">
<rect x="104" y="185" width="791" height="791" rx="190" fill="#432DD7"/>
<g clip-path="url(#clip0_18_20)">
<path d="M481.963 505.19V745.258C481.963 788.021 423.082 815.623 380.711 809.846C370.855 808.502 360.14 807.747 348.481 807.747C311.138 807.55 273.997 813.248 238.43 824.633C235.755 825.526 232.905 825.77 230.117 825.345C227.328 824.92 224.68 823.838 222.392 822.189C220.104 820.54 218.24 818.37 216.955 815.86C215.67 813.349 215 810.568 215 807.747V487.392C215 484.935 215.508 482.504 216.494 480.252C217.479 478.001 218.92 475.978 220.726 474.311C245.634 451.335 300.553 434 348.481 434C414.083 434 452.214 469.666 472.708 488.821L476.236 492.113C478.042 493.78 479.482 495.802 480.468 498.052C481.453 500.303 481.962 502.733 481.963 505.19ZM517.557 505.19V745.258C517.557 788.021 576.438 815.623 618.809 809.846C628.665 808.502 639.38 807.747 651.039 807.747C688.382 807.55 725.523 813.248 761.09 824.633C763.765 825.528 766.616 825.773 769.405 825.349C772.194 824.925 774.843 823.844 777.132 822.194C779.421 820.545 781.284 818.374 782.569 815.862C783.854 813.35 784.522 810.569 784.52 807.747V487.392C784.52 484.935 784.012 482.504 783.026 480.252C782.041 478.001 780.6 475.978 778.794 474.311C753.886 451.339 698.972 434 651.039 434C585.446 434 547.302 469.666 526.812 488.821C525.58 489.978 524.414 491.072 523.284 492.113C521.478 493.78 520.038 495.802 519.052 498.052C518.067 500.303 517.558 502.733 517.557 505.19Z" fill="white"/>
</g>
<path d="M666.713 778.366C710.297 778.366 747.343 746.958 754.856 703.692C755.43 700.279 753.996 696.867 751.129 694.958C748.261 693.049 744.591 693.049 741.723 694.9C732.146 701.147 721.021 704.444 709.609 704.444C677.035 704.444 650.484 677.663 650.484 644.809C650.484 633.298 653.752 622.077 659.946 612.418C661.781 609.525 661.781 605.823 659.888 602.931C657.996 600.039 654.555 598.593 651.229 599.172C608.333 606.749 577.193 644.115 577.193 688.075C577.193 737.877 617.337 778.366 666.713 778.366Z" fill="#432DD7"/>
<path d="M361.387 775.202C404.971 775.202 442.017 743.794 449.53 700.528C450.103 697.115 448.67 693.703 445.802 691.794C442.935 689.885 439.265 689.885 436.397 691.736C426.82 697.983 415.695 701.28 404.283 701.28C371.709 701.28 345.157 674.499 345.157 641.645C345.157 630.134 348.426 618.913 354.62 609.254C356.455 606.361 356.455 602.659 354.562 599.767C352.67 596.875 349.229 595.429 345.903 596.008C303.007 603.585 271.867 640.951 271.867 684.911C271.867 734.713 312.01 775.202 361.387 775.202Z" fill="#432DD7"/>
<path d="M207.439 415.127C204.577 417.052 202.634 420.02 202.07 423.422C201.504 426.822 202.363 430.378 204.425 433.263C206.488 436.147 209.575 438.11 212.975 438.674C216.377 439.24 219.814 438.361 222.561 436.276C222.561 436.276 222.561 436.276 222.561 436.276C226.044 433.618 229.833 430.966 233.629 428.487C301.57 383.172 402.047 373.115 463.961 435.468C467.426 438.72 470.651 441.965 473.942 445.521C474.796 446.444 476 446.993 477.273 447.061C478.547 447.128 479.785 446.709 480.732 445.881C481.678 445.054 482.26 443.882 482.363 442.611C482.466 441.34 482.083 440.074 481.282 439.104C481.282 439.104 481.282 439.104 481.282 439.104C478.047 435.201 474.862 431.602 471.404 427.973C409.753 357.755 297.305 361.142 220.49 406.998C216.089 409.529 211.645 412.284 207.439 415.127Z" fill="white"/>
<path d="M768.571 339.658C771.859 340.7 774.559 343 776.058 346.106C777.559 349.209 777.736 352.864 776.569 356.212C775.402 359.56 772.992 362.313 769.888 363.811C766.783 365.313 763.238 365.437 760.015 364.21C760.015 364.21 760.015 364.21 760.015 364.21C755.924 362.64 751.542 361.161 747.201 359.851C669.25 335.497 570.007 354.135 528.152 431.397C525.743 435.493 523.562 439.515 521.405 443.853C520.845 444.979 519.845 445.845 518.642 446.269C517.439 446.692 516.132 446.638 514.991 446.111C513.85 445.583 512.962 444.623 512.505 443.432C512.049 442.242 512.06 440.918 512.555 439.762C512.555 439.762 512.555 439.762 512.555 439.762C514.56 435.106 516.603 430.756 518.9 426.301C558.288 341.566 667.142 313.158 753.759 335.532C758.695 336.722 763.734 338.115 768.571 339.658Z" fill="white"/>
<path d="M605.383 110.108C609.084 112.931 611.405 117.171 611.735 122.02C612.07 126.861 610.387 131.915 607.155 135.944C603.924 139.973 599.437 142.612 594.782 143.156C590.122 143.707 585.675 142.118 582.319 138.863C582.319 138.863 582.319 138.863 582.319 138.863C579.943 136.563 577.606 134.294 575.274 132.047C564.88 122.091 554.224 111.907 544.522 106.505C542.229 105.233 540.027 104.418 538.785 104.152C538.167 104.007 537.793 103.964 537.604 103.906C537.406 103.857 537.324 103.769 537.036 103.846C535.777 103.865 532.227 109.262 530.385 115.429C522.718 141.595 522.661 173.758 522.635 203.951C522.657 207.306 522.702 210.752 522.771 214.291C522.801 216.02 522.143 217.761 520.997 219.124C519.848 220.488 518.304 221.363 516.651 221.563C514.999 221.762 513.357 221.272 512.034 220.207C510.713 219.142 509.82 217.588 509.603 215.882C509.603 215.882 509.603 215.882 509.603 215.882C509.165 212.341 508.75 208.888 508.359 205.519C505.255 174.621 501.096 144.299 507.027 109.795C509.136 101.213 511.113 90.8544 522.142 81.3859C534.522 71.5997 548.972 75.2858 556.846 78.4001C573.854 85.5216 585.399 95.1616 597.526 104.113C600.175 106.125 602.78 108.12 605.383 110.108Z" fill="#432DD7"/>
<path d="M393.617 110.108C389.916 112.931 387.595 117.171 387.265 122.02C386.93 126.861 388.613 131.915 391.845 135.944C395.076 139.973 399.563 142.612 404.218 143.156C408.878 143.707 413.325 142.118 416.681 138.863C416.681 138.863 416.681 138.863 416.681 138.863C419.057 136.563 421.394 134.294 423.726 132.047C434.12 122.091 444.776 111.907 454.478 106.505C456.771 105.233 458.973 104.418 460.215 104.152C460.833 104.007 461.207 103.964 461.396 103.906C461.594 103.857 461.676 103.769 461.964 103.846C463.223 103.865 466.773 109.262 468.615 115.429C476.282 141.595 476.339 173.758 476.365 203.951C476.343 207.306 476.298 210.752 476.229 214.291C476.199 216.02 476.857 217.761 478.003 219.124C479.152 220.488 480.696 221.363 482.349 221.563C484.001 221.762 485.643 221.272 486.966 220.207C488.287 219.142 489.18 217.588 489.397 215.882C489.397 215.882 489.397 215.882 489.397 215.882C489.835 212.341 490.25 208.888 490.641 205.519C493.745 174.621 497.904 144.299 491.973 109.795C489.864 101.213 487.887 90.8544 476.858 81.3859C464.478 71.5997 450.028 75.2858 442.154 78.4001C425.146 85.5216 413.601 95.1616 401.474 104.113C398.825 106.125 396.22 108.12 393.617 110.108Z" fill="#432DD7"/>
<defs>
<clipPath id="clip0_18_20">
<rect width="569.52" height="427.14" fill="white" transform="translate(215 434)"/>
</clipPath>
</defs>
</svg>
