<svg width="1000" height="1081" viewBox="0 0 1000 1081" fill="none" xmlns="http://www.w3.org/2000/svg">
<rect x="104" y="185" width="791" height="791" rx="190" fill="#432DD7"/>
<g clip-path="url(#clip0_1_68)">
<path d="M482.494 457.104V697.172C482.494 739.935 423.613 767.537 381.242 761.76C371.386 760.416 360.671 759.661 349.012 759.661C311.669 759.464 274.528 765.162 238.961 776.547C236.286 777.44 233.436 777.684 230.648 777.259C227.859 776.834 225.211 775.752 222.923 774.103C220.635 772.454 218.771 770.284 217.486 767.774C216.201 765.263 215.531 762.482 215.531 759.661V439.306C215.531 436.849 216.039 434.418 217.025 432.166C218.01 429.915 219.451 427.892 221.257 426.225C246.165 403.249 301.084 385.914 349.012 385.914C414.614 385.914 452.745 421.58 473.239 440.735L476.767 444.027C478.573 445.694 480.013 447.716 480.999 449.966C481.984 452.217 482.493 454.647 482.494 457.104ZM518.089 457.104V697.172C518.089 739.935 576.969 767.537 619.34 761.76C629.196 760.416 639.911 759.661 651.57 759.661C688.913 759.464 726.054 765.162 761.621 776.547C764.296 777.442 767.147 777.687 769.936 777.263C772.725 776.839 775.374 775.758 777.663 774.108C779.952 772.459 781.815 770.288 783.1 767.776C784.385 765.264 785.053 762.483 785.051 759.661V439.306C785.051 436.849 784.543 434.418 783.557 432.166C782.572 429.915 781.131 427.892 779.325 426.225C754.417 403.253 699.503 385.914 651.57 385.914C585.977 385.914 547.833 421.58 527.343 440.735C526.111 441.892 524.945 442.986 523.815 444.027C522.009 445.694 520.569 447.716 519.583 449.966C518.598 452.217 518.089 454.647 518.089 457.104Z" fill="white"/>
</g>
<path d="M659.122 688.348C702.706 688.348 739.752 656.94 747.265 613.674C747.839 610.261 746.405 606.849 743.537 604.94C740.67 603.031 737 603.031 734.132 604.882C724.555 611.129 713.43 614.426 702.018 614.426C669.444 614.426 642.893 587.645 642.893 554.791C642.893 543.28 646.161 532.059 652.355 522.399C654.19 519.507 654.19 515.805 652.297 512.913C650.405 510.021 646.964 508.575 643.638 509.154C600.742 516.731 569.602 554.097 569.602 598.057C569.602 647.859 609.746 688.348 659.122 688.348Z" fill="#432DD7"/>
<path d="M353.796 685.184C397.38 685.184 434.426 653.776 441.939 610.51C442.513 607.097 441.079 603.685 438.212 601.776C435.344 599.867 431.674 599.867 428.806 601.718C419.229 607.965 408.104 611.262 396.692 611.262C364.118 611.262 337.567 584.481 337.567 551.627C337.567 540.116 340.835 528.895 347.029 519.235C348.864 516.343 348.864 512.641 346.971 509.749C345.079 506.857 341.638 505.411 338.312 505.99C295.416 513.567 264.276 550.933 264.276 594.893C264.276 644.695 304.42 685.184 353.796 685.184Z" fill="#432DD7"/>
<path d="M207.179 381.073C204.317 382.998 202.374 385.966 201.81 389.368C201.244 392.768 202.103 396.324 204.165 399.209C206.228 402.093 209.315 404.056 212.715 404.62C216.117 405.186 219.554 404.307 222.301 402.222C222.301 402.222 222.301 402.222 222.301 402.222C225.785 399.564 229.573 396.912 233.369 394.433C301.31 349.118 401.787 339.061 463.701 401.414C467.166 404.666 470.391 407.911 473.682 411.467C474.536 412.39 475.74 412.939 477.013 413.007C478.287 413.074 479.525 412.655 480.472 411.827C481.418 411 482 409.828 482.103 408.557C482.206 407.286 481.823 406.02 481.022 405.05C481.022 405.05 481.022 405.05 481.022 405.05C477.787 401.147 474.603 397.548 471.144 393.919C409.494 323.701 297.045 327.088 220.23 372.944C215.829 375.475 211.385 378.23 207.179 381.073Z" fill="white"/>
<path d="M792.612 381.073C795.474 382.998 797.417 385.966 797.981 389.368C798.547 392.768 797.688 396.324 795.626 399.209C793.563 402.093 790.476 404.056 787.076 404.62C783.674 405.186 780.237 404.307 777.49 402.222C777.49 402.222 777.49 402.222 777.49 402.222C774.007 399.564 770.218 396.912 766.422 394.433C698.481 349.118 598.004 339.061 536.09 401.414C532.625 404.666 529.4 407.911 526.109 411.467C525.255 412.39 524.051 412.939 522.778 413.007C521.504 413.074 520.266 412.655 519.319 411.827C518.373 411 517.791 409.828 517.688 408.557C517.585 407.286 517.968 406.02 518.769 405.05C518.769 405.05 518.769 405.05 518.769 405.05C522.004 401.147 525.189 397.548 528.647 393.919C590.298 323.701 702.747 327.088 779.561 372.944C783.962 375.475 788.406 378.23 792.612 381.073Z" fill="white"/>
<path d="M605.382 110.108C609.084 112.931 611.405 117.171 611.735 122.02C612.07 126.861 610.387 131.915 607.155 135.944C603.923 139.973 599.437 142.612 594.782 143.156C590.121 143.707 585.674 142.118 582.319 138.863C582.319 138.863 582.319 138.863 582.319 138.863C579.942 136.563 577.606 134.294 575.273 132.047C564.879 122.091 554.224 111.907 544.522 106.505C542.229 105.233 540.027 104.418 538.785 104.152C538.166 104.007 537.793 103.964 537.604 103.906C537.406 103.857 537.324 103.769 537.036 103.846C535.777 103.865 532.227 109.262 530.385 115.429C522.718 141.595 522.661 173.758 522.634 203.951C522.657 207.306 522.702 210.752 522.771 214.291C522.801 216.02 522.143 217.761 520.997 219.124C519.848 220.488 518.304 221.363 516.651 221.563C514.998 221.762 513.357 221.272 512.033 220.207C510.713 219.142 509.819 217.588 509.603 215.882C509.603 215.882 509.603 215.882 509.603 215.882C509.164 212.341 508.75 208.888 508.358 205.519C505.255 174.621 501.096 144.299 507.027 109.795C509.135 101.213 511.112 90.8544 522.142 81.3859C534.522 71.5997 548.972 75.2858 556.845 78.4001C573.854 85.5216 585.399 95.1616 597.526 104.113C600.174 106.125 602.78 108.12 605.382 110.108Z" fill="#432DD7"/>
<path d="M393.617 110.108C389.916 112.931 387.595 117.171 387.265 122.02C386.93 126.861 388.613 131.915 391.845 135.944C395.076 139.973 399.563 142.612 404.218 143.156C408.878 143.707 413.325 142.118 416.681 138.863C416.681 138.863 416.681 138.863 416.681 138.863C419.057 136.563 421.394 134.294 423.726 132.047C434.12 122.091 444.776 111.907 454.478 106.505C456.771 105.233 458.973 104.418 460.215 104.152C460.833 104.007 461.207 103.964 461.396 103.906C461.594 103.857 461.676 103.769 461.964 103.846C463.223 103.865 466.773 109.262 468.615 115.429C476.282 141.595 476.339 173.758 476.365 203.951C476.343 207.306 476.298 210.752 476.229 214.291C476.199 216.02 476.857 217.761 478.003 219.124C479.152 220.488 480.696 221.363 482.349 221.563C484.001 221.762 485.643 221.272 486.966 220.207C488.287 219.142 489.18 217.588 489.397 215.882C489.397 215.882 489.397 215.882 489.397 215.882C489.835 212.341 490.25 208.888 490.641 205.519C493.745 174.621 497.904 144.299 491.973 109.795C489.864 101.213 487.887 90.8544 476.858 81.3859C464.478 71.5997 450.028 75.2858 442.154 78.4001C425.146 85.5216 413.601 95.1616 401.474 104.113C398.825 106.125 396.22 108.12 393.617 110.108Z" fill="#432DD7"/>
<defs>
<clipPath id="clip0_1_68">
<rect width="569.52" height="427.14" fill="white" transform="translate(215.531 385.914)"/>
</clipPath>
</defs>
</svg>
