<svg width="1000" height="1000" viewBox="0 0 1000 1000" fill="none" xmlns="http://www.w3.org/2000/svg">
<rect x="104" y="104" width="791" height="791" rx="190" fill="#432DD7"/>
<g clip-path="url(#clip0_1_68)">
<path d="M482.494 376.104V681.356C482.494 700.065 459.168 709.899 442.863 700.725C421.436 688.669 391.479 678.661 349.012 678.661C311.669 678.464 274.528 684.162 238.961 695.547C236.286 696.44 233.436 696.684 230.648 696.259C227.859 695.834 225.211 694.752 222.923 693.103C220.635 691.454 218.771 689.284 217.486 686.774C216.201 684.263 215.531 681.482 215.531 678.661V358.306C215.531 355.849 216.039 353.418 217.025 351.166C218.01 348.915 219.451 346.892 221.257 345.225C246.165 322.249 301.084 304.914 349.012 304.914C414.614 304.914 452.745 340.58 473.239 359.735L476.767 363.027C478.573 364.694 480.013 366.716 480.999 368.966C481.984 371.217 482.493 373.647 482.494 376.104ZM518.089 376.104V681.356C518.089 700.065 541.414 709.899 557.719 700.725C579.146 688.669 609.103 678.661 651.57 678.661C688.913 678.464 726.054 684.162 761.621 695.547C764.296 696.442 767.147 696.687 769.936 696.263C772.725 695.839 775.374 694.758 777.663 693.108C779.952 691.459 781.815 689.288 783.1 686.776C784.385 684.264 785.053 681.483 785.051 678.661V358.306C785.051 355.849 784.543 353.418 783.557 351.166C782.572 348.915 781.131 346.892 779.325 345.225C754.417 322.253 699.503 304.914 651.57 304.914C585.977 304.914 547.833 340.58 527.343 359.735C526.111 360.892 524.945 361.986 523.815 363.027C522.009 364.694 520.569 366.716 519.583 368.966C518.598 371.217 518.089 373.647 518.089 376.104Z" fill="white"/>
</g>
<path d="M659.122 607.348C702.706 607.348 739.752 575.94 747.265 532.674C747.839 529.261 746.405 525.849 743.537 523.94C740.67 522.031 737 522.031 734.132 523.882C724.555 530.129 713.43 533.426 702.018 533.426C669.444 533.426 642.893 506.645 642.893 473.791C642.893 462.28 646.161 451.059 652.355 441.399C654.19 438.507 654.19 434.805 652.297 431.913C650.405 429.021 646.964 427.575 643.638 428.154C600.742 435.731 569.602 473.097 569.602 517.057C569.602 566.859 609.746 607.348 659.122 607.348Z" fill="#432DD7"/>
<path d="M353.796 604.184C397.38 604.184 434.426 572.776 441.939 529.51C442.513 526.097 441.079 522.685 438.212 520.776C435.344 518.867 431.674 518.867 428.806 520.718C419.229 526.965 408.104 530.262 396.692 530.262C364.118 530.262 337.567 503.481 337.567 470.627C337.567 459.116 340.835 447.895 347.029 438.235C348.864 435.343 348.864 431.641 346.971 428.749C345.079 425.857 341.638 424.411 338.312 424.99C295.416 432.567 264.276 469.933 264.276 513.893C264.276 563.695 304.42 604.184 353.796 604.184Z" fill="#432DD7"/>
<path d="M211.541 306.174C210.344 307.008 209.534 308.28 209.296 309.719C209.056 311.158 209.408 312.646 210.266 313.846C211.125 315.047 212.419 315.861 213.858 316.1C215.297 316.339 216.763 315.984 217.939 315.121C217.939 315.121 217.939 315.121 217.939 315.121C221.631 312.41 225.608 309.728 229.579 307.234C300.08 261.763 404.01 253.63 465.848 318.252C469.311 321.613 472.524 324.96 475.799 328.616C476.16 329.019 476.669 329.262 477.212 329.295C477.755 329.329 478.287 329.149 478.694 328.793C479.1 328.437 479.35 327.934 479.39 327.392C479.429 326.849 479.256 326.312 478.905 325.901C478.905 325.901 478.905 325.901 478.905 325.901C475.654 322.098 472.457 318.601 468.997 315.081C407.27 247.132 298.275 252.443 224.02 298.142C219.794 300.659 215.539 303.384 211.541 306.174Z" fill="white"/>
<path d="M788.25 306.174C789.447 307.008 790.257 308.28 790.496 309.719C790.735 311.158 790.384 312.646 789.525 313.846C788.666 315.047 787.372 315.861 785.934 316.1C784.494 316.339 783.028 315.984 781.852 315.121C781.852 315.121 781.852 315.121 781.852 315.121C778.16 312.41 774.183 309.728 770.212 307.234C699.711 261.763 595.781 253.63 533.943 318.252C530.48 321.613 527.267 324.96 523.992 328.616C523.631 329.019 523.122 329.262 522.579 329.295C522.036 329.329 521.504 329.149 521.098 328.793C520.691 328.437 520.441 327.934 520.402 327.392C520.362 326.849 520.535 326.312 520.886 325.901C520.886 325.901 520.886 325.901 520.886 325.901C524.137 322.098 527.334 318.601 530.794 315.081C592.521 247.132 701.516 252.443 775.771 298.142C779.997 300.659 784.252 303.384 788.25 306.174Z" fill="white"/>
<defs>
<clipPath id="clip0_1_68">
<rect width="569.52" height="427.14" fill="white" transform="translate(215.531 304.914)"/>
</clipPath>
</defs>
</svg>
