<svg width="1000" height="1081" viewBox="0 0 1000 1081" fill="none" xmlns="http://www.w3.org/2000/svg">
<rect x="179" y="237" width="642" height="642" rx="160" fill="#070C0C"/>
<g clip-path="url(#clip0_25_2)">
<path d="M486.317 457.684V630.814C486.317 673.578 425.143 704.276 382.389 703.39C380.924 703.36 379.44 703.345 377.937 703.345C347.616 703.184 317.46 707.811 288.582 717.055C286.409 717.779 284.096 717.978 281.831 717.633C279.567 717.288 277.418 716.409 275.56 715.07C273.702 713.731 272.188 711.97 271.145 709.931C270.101 707.892 269.557 705.635 269.558 703.345V443.233C269.557 441.238 269.97 439.264 270.77 437.436C271.571 435.608 272.741 433.966 274.207 432.612C294.431 413.956 339.022 399.882 377.937 399.882C431.202 399.882 462.163 428.841 478.803 444.393L481.668 447.066C483.133 448.419 484.303 450.061 485.103 451.889C485.904 453.716 486.317 455.689 486.317 457.684ZM515.218 457.684V630.814C515.218 673.578 576.392 704.276 619.147 703.39C620.611 703.36 622.095 703.345 623.598 703.345C653.919 703.184 684.075 707.811 712.953 717.055C715.126 717.781 717.44 717.981 719.705 717.636C721.97 717.292 724.12 716.414 725.979 715.075C727.837 713.735 729.351 711.973 730.394 709.933C731.437 707.894 731.98 705.635 731.978 703.345V443.233C731.978 441.238 731.565 439.264 730.765 437.436C729.965 435.608 728.794 433.966 727.328 432.612C707.105 413.96 662.517 399.882 623.598 399.882C570.34 399.882 539.369 428.841 522.733 444.393C521.732 445.332 520.785 446.221 519.868 447.066C518.402 448.419 517.232 450.061 516.432 451.889C515.632 453.716 515.218 455.689 515.218 457.684Z" fill="white"/>
</g>
<path d="M629.729 645.442C665.118 645.442 695.197 619.94 701.297 584.81C701.763 582.04 700.599 579.269 698.271 577.719C695.942 576.169 692.962 576.169 690.634 577.672C682.858 582.744 673.825 585.421 664.559 585.421C638.111 585.421 616.552 563.676 616.552 537.001C616.552 527.655 619.206 518.544 624.235 510.7C625.725 508.352 625.725 505.346 624.188 502.998C622.652 500.65 619.858 499.476 617.157 499.945C582.328 506.098 557.044 536.437 557.044 572.13C557.044 612.567 589.639 645.442 629.729 645.442Z" fill="#070C0C"/>
<path d="M381.821 642.873C417.209 642.873 447.289 617.371 453.389 582.241C453.855 579.471 452.691 576.7 450.362 575.15C448.034 573.6 445.054 573.6 442.726 575.103C434.95 580.175 425.917 582.852 416.651 582.852C390.203 582.852 368.644 561.107 368.644 534.432C368.644 525.086 371.298 515.975 376.327 508.131C377.817 505.783 377.817 502.777 376.28 500.429C374.744 498.081 371.95 496.907 369.249 497.376C334.42 503.529 309.136 533.868 309.136 569.561C309.136 609.998 341.73 642.873 381.821 642.873Z" fill="#070C0C"/>
<path d="M261.354 393.962C258.479 395.869 256.524 398.82 255.96 402.223C255.394 405.623 256.265 409.195 258.34 412.098C260.416 415.001 263.515 416.98 266.915 417.544C270.317 418.11 273.742 417.215 276.476 415.112C276.476 415.112 276.476 415.112 276.476 415.112C279.236 412.971 282.251 410.827 285.276 408.819C339.607 372.076 420.063 363.284 470.358 413.171C473.172 415.777 475.794 418.378 478.472 421.233C479.327 422.144 480.531 422.683 481.8 422.746C483.07 422.809 484.301 422.392 485.242 421.57C486.182 420.748 486.76 419.583 486.868 418.316C486.974 417.05 486.601 415.785 485.812 414.815C485.812 414.815 485.812 414.815 485.812 414.815C483.191 411.614 480.609 408.658 477.801 405.676C427.769 347.924 335.341 350.047 272.137 387.33C268.507 389.39 264.837 391.637 261.354 393.962Z" fill="white"/>
<path d="M739.539 393.962C742.414 395.869 744.368 398.82 744.932 402.223C745.499 405.623 744.628 409.195 742.552 412.098C740.477 415.001 737.378 416.98 733.978 417.544C730.576 418.11 727.151 417.215 724.416 415.112C724.416 415.112 724.416 415.112 724.416 415.112C721.656 412.971 718.642 410.827 715.616 408.819C661.286 372.076 580.83 363.284 530.534 413.171C527.721 415.777 525.098 418.378 522.421 421.233C521.566 422.144 520.362 422.683 519.093 422.746C517.823 422.809 516.591 422.392 515.651 421.57C514.71 420.748 514.132 419.583 514.025 418.316C513.918 417.05 514.291 415.785 515.08 414.815C515.08 414.815 515.08 414.815 515.08 414.815C517.702 411.614 520.284 408.658 523.091 405.676C573.123 347.924 665.552 350.047 728.755 387.33C732.385 389.39 736.055 391.637 739.539 393.962Z" fill="white"/>
<path d="M588.265 173.238C592.007 176.011 594.363 180.207 594.692 185.057C595.028 189.897 593.309 194.995 590.037 199.074C586.766 203.153 582.244 205.836 577.59 206.379C572.928 206.931 568.516 205.298 565.201 201.993C565.201 201.993 565.201 201.993 565.201 201.993C563.293 200.096 561.421 198.228 559.557 196.381C551.28 188.204 542.712 179.883 535.522 175.658C533.848 174.661 532.321 174.068 531.769 173.843C531.488 173.719 531.474 173.648 531.62 173.497C531.763 173.355 532 173.109 532.003 172.969C531.899 172.096 528.869 176.012 527.398 180.792C521.01 201.253 520.567 227.541 520.251 251.99C520.235 254.712 520.237 257.509 520.258 260.383C520.266 262.092 519.589 263.814 518.442 265.162C517.291 266.511 515.765 267.374 514.132 267.572C512.5 267.769 510.876 267.286 509.554 266.236C508.235 265.186 507.325 263.656 507.09 261.974C507.09 261.974 507.09 261.974 507.09 261.974C506.699 259.099 506.328 256.294 505.975 253.558C503.161 228.404 499.388 203.957 504.04 175.158C505.777 167.963 507.235 159.085 517.109 150.509C528.301 141.637 541.185 144.989 547.845 147.554C562.342 153.498 571.8 161.274 581.81 168.448C583.989 170.059 586.13 171.653 588.265 173.238Z" fill="#070C0C"/>
<path d="M411.985 173.238C408.243 176.011 405.887 180.207 405.558 185.057C405.222 189.897 406.941 194.995 410.213 199.074C413.484 203.153 418.006 205.836 422.66 206.379C427.322 206.931 431.734 205.298 435.049 201.993C435.049 201.993 435.049 201.993 435.049 201.993C436.957 200.096 438.829 198.228 440.693 196.381C448.97 188.204 457.538 179.883 464.728 175.658C466.402 174.661 467.929 174.068 468.481 173.843C468.762 173.719 468.776 173.648 468.63 173.497C468.487 173.355 468.25 173.109 468.247 172.969C468.351 172.096 471.381 176.012 472.852 180.792C479.24 201.253 479.683 227.541 479.999 251.99C480.015 254.712 480.013 257.509 479.992 260.383C479.984 262.092 480.661 263.814 481.808 265.162C482.959 266.511 484.485 267.374 486.118 267.572C487.75 267.769 489.374 267.286 490.696 266.236C492.015 265.186 492.925 263.656 493.16 261.974C493.16 261.974 493.16 261.974 493.16 261.974C493.551 259.099 493.922 256.294 494.275 253.558C497.089 228.404 500.862 203.957 496.21 175.158C494.473 167.963 493.015 159.085 483.141 150.509C471.949 141.637 459.065 144.989 452.405 147.554C437.908 153.498 428.45 161.274 418.44 168.448C416.261 170.059 414.12 171.653 411.985 173.238Z" fill="#070C0C"/>
<defs>
<clipPath id="clip0_25_2">
<rect width="462.42" height="346.815" fill="white" transform="translate(269.558 399.882)"/>
</clipPath>
</defs>
</svg>
